<svg width="39" height="39" viewBox="0 0 39 39" fill="none" xmlns="http://www.w3.org/2000/svg">
<path fill-rule="evenodd" clip-rule="evenodd" d="M8.125 14.625C8.125 8.3525 13.2275 3.25 19.5 3.25C25.7725 3.25 30.875 8.3525 30.875 14.625C30.875 18.4925 28.9412 21.8888 26 23.9525V27.625C26 28.5187 25.2687 29.25 24.375 29.25H14.625C13.7312 29.25 13 28.5187 13 27.625V23.9525C10.0588 21.8888 8.125 18.4925 8.125 14.625ZM16.25 35.75C15.3562 35.75 14.625 35.0187 14.625 34.125V32.5H24.375V34.125C24.375 35.0187 23.6438 35.75 22.75 35.75H16.25Z" fill="#377DFF"/>
<path d="M12 14C12 12.3333 12.8 8.8 16 8" stroke="#EBF2FF" stroke-linecap="round" stroke-linejoin="round"/>
<rect x="14" y="30" width="11" height="2" rx="1" fill="#377DFF"/>
</svg>
