<svg width="171" height="52" viewBox="0 0 171 52" fill="none" xmlns="http://www.w3.org/2000/svg">
<g clip-path="url(#clip0_1004_305)">
<path d="M65.3557 38.3577C61.803 38.3577 59.097 37.3774 57.2375 35.4168C55.3781 33.4562 54.4481 30.6718 54.4475 27.0635C54.4475 25.2702 54.7314 23.6695 55.2991 22.2614C55.866 20.8538 56.6434 19.6651 57.6314 18.6952C58.6344 17.7159 59.8389 16.9635 61.1624 16.4895C62.5284 15.989 64.0102 15.7388 65.6078 15.7388C66.453 15.7322 67.2971 15.8002 68.1302 15.9421C68.8013 16.0577 69.4644 16.2143 70.116 16.4112C70.6024 16.5573 71.0768 16.7403 71.5349 16.9588C71.9131 17.1466 72.1864 17.2924 72.3548 17.3965L70.9359 21.3388C70.1874 20.9548 69.4001 20.6507 68.5869 20.4318C67.6933 20.1812 66.6793 20.0559 65.5449 20.0559C64.7879 20.0559 64.0364 20.183 63.3222 20.4318C62.5968 20.6821 61.939 21.0941 61.3992 21.6362C60.8418 22.1886 60.3951 22.9029 60.0593 23.7788C59.7226 24.6549 59.5544 25.7186 59.5548 26.9699C59.5477 27.9132 59.6589 28.8538 59.8857 29.77C60.1065 30.6356 60.4638 31.3813 60.9576 32.0071C61.4736 32.6504 62.1389 33.1602 62.8966 33.493C63.6952 33.858 64.662 34.0405 65.7968 34.0406C66.4402 34.0456 67.0832 34.0037 67.7204 33.9152C68.2297 33.8435 68.7347 33.7443 69.2332 33.6182C69.6319 33.5182 70.022 33.3873 70.4001 33.2269C70.7358 33.0815 71.0406 32.946 71.3145 32.8202L72.6699 36.7308C71.9758 37.1484 70.9983 37.5239 69.7375 37.8573C68.4767 38.1907 67.0161 38.3575 65.3557 38.3577Z" fill="black"/>
<path d="M89.0641 29.6604C89.0641 30.9539 88.8747 32.1375 88.4959 33.2111C88.1177 34.2855 87.5713 35.2033 86.8567 35.9644C86.1372 36.7289 85.261 37.3316 84.287 37.7318C83.2889 38.1488 82.1699 38.3575 80.9301 38.3577C79.7107 38.3577 78.6019 38.1491 77.6038 37.7318C76.6299 37.3317 75.7538 36.729 75.0346 35.9644C74.2973 35.167 73.7291 34.2307 73.3637 33.2111C72.9641 32.1372 72.7645 30.9536 72.7646 29.6604C72.7648 28.3671 72.9697 27.1887 73.3793 26.1251C73.7565 25.1135 74.3354 24.1878 75.0814 23.4033C75.8125 22.6489 76.6926 22.0525 77.6667 21.6514C78.7011 21.2271 79.811 21.0143 80.9301 21.0255C82.1277 21.0255 83.2259 21.2341 84.2247 21.6514C85.1953 22.0503 86.0706 22.6472 86.7939 23.4033C87.53 24.1896 88.0983 25.1154 88.4648 26.1251C88.864 27.1887 89.0637 28.3671 89.0641 29.6604ZM84.2717 29.6604C84.2717 28.2214 83.9828 27.0899 83.405 26.2658C82.8272 25.4417 82.0022 25.0298 80.9301 25.0301C79.8576 25.0301 79.0274 25.442 78.4393 26.2659C77.8512 27.0898 77.5569 28.2213 77.5563 29.6604C77.5563 31.0994 77.8506 32.2413 78.4393 33.086C79.0274 33.9309 79.8576 34.3533 80.9301 34.3532C82.0014 34.3532 82.8263 33.9308 83.4047 33.0859C83.9831 32.2411 84.2721 31.0992 84.2717 29.6604Z" fill="black"/>
<path d="M106.624 29.6604C106.624 30.9539 106.435 32.1375 106.057 33.2111C105.678 34.2855 105.132 35.2033 104.417 35.9644C103.698 36.7288 102.822 37.3315 101.848 37.7318C100.85 38.1488 99.7308 38.3575 98.4906 38.3577C97.2712 38.3577 96.1625 38.1491 95.1644 37.7318C94.1905 37.3317 93.3143 36.729 92.5951 35.9644C91.8578 35.167 91.2896 34.2307 90.9242 33.2111C90.5247 32.1372 90.325 30.9536 90.3252 29.6604C90.3254 28.3671 90.5303 27.1887 90.9398 26.1251C91.317 25.1134 91.8961 24.1876 92.6424 23.4033C93.3732 22.6489 94.2532 22.0524 95.2273 21.6514C96.2616 21.2271 97.3715 21.0143 98.4906 21.0255C99.6882 21.0255 100.786 21.2341 101.785 21.6514C102.756 22.0503 103.631 22.6472 104.355 23.4033C105.091 24.1897 105.659 25.1155 106.025 26.1251C106.424 27.1887 106.624 28.3671 106.624 29.6604ZM101.833 29.6604C101.833 28.2214 101.544 27.0899 100.965 26.2658C100.387 25.4417 99.5625 25.0298 98.4908 25.03C97.4184 25.03 96.5881 25.4419 96.0001 26.2658C95.412 27.0897 95.1177 28.2212 95.117 29.6604C95.117 31.0994 95.4114 32.2412 96.0001 33.0859C96.5888 33.9307 97.419 34.3531 98.4908 34.3532C99.5627 34.3532 100.388 33.9308 100.965 33.0859C101.543 32.2411 101.832 31.0992 101.832 29.6604H101.833Z" fill="black"/>
<path d="M123.301 37.3879C122.881 37.5127 122.397 37.6327 121.851 37.7479C121.304 37.8623 120.732 37.9613 120.133 38.045C119.534 38.1286 118.924 38.1963 118.304 38.2481C117.684 38.3001 117.09 38.3262 116.523 38.3264C115.156 38.3264 113.937 38.1283 112.866 37.732C111.795 37.3358 110.891 36.7674 110.155 36.027C109.403 35.2617 108.827 34.3438 108.468 33.3366C108.079 32.2832 107.885 31.0995 107.885 29.7855C107.885 28.4512 108.053 27.2468 108.389 26.1724C108.726 25.098 109.209 24.1854 109.84 23.4348C110.465 22.6882 111.258 22.0985 112.156 21.7138C113.071 21.3178 114.116 21.1196 115.293 21.1192C115.882 21.1124 116.469 21.1756 117.043 21.3074C117.578 21.4394 118.1 21.6173 118.604 21.839V14.3928L123.301 13.6422L123.301 37.3879ZM112.676 29.5666C112.676 31.0055 113.002 32.163 113.654 33.039C114.305 33.915 115.272 34.3531 116.555 34.3532C116.975 34.3532 117.364 34.3376 117.721 34.3064C118.078 34.2751 118.373 34.2385 118.604 34.1965V25.7183C118.247 25.5046 117.858 25.3464 117.453 25.2491C116.985 25.1246 116.503 25.0615 116.018 25.0615C113.79 25.0615 112.676 26.5632 112.676 29.5666Z" fill="black"/>
<path d="M125.351 29.8166C125.351 28.3574 125.577 27.08 126.029 25.9843C126.48 24.8886 127.074 23.9762 127.81 23.2471C128.531 22.5262 129.396 21.9616 130.348 21.589C131.285 21.2169 132.286 21.0255 133.296 21.0251C135.649 21.0251 137.509 21.7396 138.876 23.1684C140.242 24.5971 140.925 26.6984 140.925 29.4722C140.925 29.7433 140.915 30.0405 140.893 30.3637C140.872 30.6874 140.851 30.9736 140.831 31.2241H130.174C130.279 32.1836 130.731 32.9448 131.53 33.5076C132.328 34.0711 133.4 34.3528 134.746 34.3526C135.597 34.3534 136.447 34.2749 137.283 34.118C138.114 33.9613 138.792 33.7683 139.317 33.539L139.948 37.3245C139.623 37.4773 139.285 37.603 138.939 37.7002C138.477 37.8346 138.009 37.9443 137.536 38.0287C137.021 38.1226 136.469 38.2008 135.881 38.2633C135.295 38.3257 134.705 38.357 134.116 38.3572C132.622 38.3572 131.324 38.1382 130.221 37.7003C129.118 37.2624 128.204 36.663 127.479 35.902C126.747 35.1297 126.198 34.2052 125.871 33.1958C125.517 32.1043 125.341 30.9634 125.351 29.8166ZM136.386 28.0338C136.365 27.641 136.296 27.2521 136.18 26.8758C136.07 26.5105 135.887 26.1705 135.644 25.8751C135.393 25.5752 135.082 25.3301 134.73 25.155C134.362 24.9674 133.905 24.8735 133.359 24.8736C132.833 24.8736 132.381 24.9623 132.003 25.1396C131.641 25.3046 131.318 25.5446 131.057 25.8433C130.801 26.1434 130.603 26.4882 130.474 26.8601C130.338 27.2415 130.238 27.6343 130.174 28.0336L136.386 28.0338Z" fill="black"/>
<path d="M147.734 34.5723C148.596 34.5723 149.205 34.4888 149.563 34.3218C149.92 34.1548 150.099 33.8315 150.098 33.3519C150.098 32.9766 149.867 32.6483 149.405 32.3669C148.942 32.085 148.238 31.7669 147.293 31.4126C146.612 31.1646 145.943 30.8827 145.291 30.568C144.728 30.3013 144.212 29.9475 143.762 29.5199C143.338 29.1077 143.005 28.6121 142.785 28.0649C142.553 27.5018 142.437 26.8239 142.437 26.0313C142.437 24.4881 143.016 23.2681 144.172 22.3713C145.328 21.4744 146.915 21.0259 148.932 21.0256C149.905 21.0225 150.877 21.1116 151.833 21.2917C152.757 21.4691 153.493 21.6621 154.04 21.8707L153.22 25.4997C152.635 25.3011 152.041 25.134 151.438 24.999C150.729 24.8459 150.004 24.7724 149.279 24.7798C147.807 24.7798 147.072 25.1865 147.072 25.9998C147.069 26.1713 147.101 26.3417 147.166 26.5005C147.252 26.6724 147.383 26.8182 147.545 26.9226C147.789 27.0908 148.047 27.238 148.317 27.3627C148.643 27.5205 149.058 27.6938 149.562 27.8826C150.592 28.2616 151.443 28.6351 152.116 29.0031C152.788 29.3709 153.319 29.7681 153.708 30.1948C154.085 30.6012 154.365 31.0866 154.528 31.615C154.695 32.2037 154.775 32.8135 154.765 33.4251C154.765 35.0485 154.15 36.2765 152.92 37.1092C151.69 37.941 149.951 38.3572 147.702 38.3576C146.231 38.3576 145.007 38.2324 144.029 37.9818C143.052 37.7312 142.375 37.5227 141.996 37.3564L142.785 33.571C143.582 33.8836 144.405 34.1296 145.244 34.3064C146.062 34.4813 146.897 34.5705 147.734 34.5723Z" fill="black"/>
<path d="M156.687 37.9195V14.3928L161.385 13.6422V21.526C161.783 21.4012 162.188 21.302 162.599 21.2288C163.071 21.1371 163.551 21.0899 164.033 21.0881C165.378 21.0881 166.497 21.2706 167.39 21.6357C168.284 22.0008 168.999 22.5169 169.535 23.184C170.086 23.8834 170.473 24.6956 170.669 25.5619C170.9 26.5676 171.011 27.5966 171 28.628V37.9193H166.303V29.1912C166.303 27.6893 166.109 26.6255 165.72 25.9998C165.33 25.3744 164.61 25.0616 163.56 25.0615C163.163 25.0593 162.767 25.0959 162.378 25.1708C162.01 25.2445 161.679 25.3228 161.385 25.4058V37.9195H156.687Z" fill="black"/>
<g clip-path="url(#clip1_1004_305)">
<path d="M19.1997 0.0345764V7.07215H19.2075C29.76 7.07215 38.3145 15.5609 38.3145 26.0327C38.3145 36.5045 29.76 44.9932 19.2075 44.9932L19.1997 44.9931V51.968C33.6284 51.968 45.3666 40.3194 45.3666 26.0014C45.3666 11.6833 33.6284 0.0345764 19.1997 0.0345764Z" fill="#1267FC"/>
<path d="M19.2417 45.0162V37.9359C12.5747 37.9359 7.1697 32.5725 7.1697 25.9564C7.1697 19.3402 12.5746 13.9766 19.2417 13.9766V6.89627C8.63391 6.89627 0.0344238 15.4295 0.0344238 25.9564C0.0344238 36.4832 8.63398 45.0162 19.2417 45.0162Z" fill="#1267FC"/>
<path d="M31.3132 25.951H38.4482C38.4461 15.4265 29.8477 6.89517 19.2412 6.89517V13.9758C25.907 13.9758 31.3107 19.3368 31.3132 25.951Z" fill="#6BA3FC"/>
</g>
</g>
<defs>
<clipPath id="clip0_1004_305">
<rect width="171" height="52" fill="white"/>
</clipPath>
<clipPath id="clip1_1004_305">
<rect width="45.3321" height="51.9335" fill="white" transform="translate(0.0344238 0.0345764)"/>
</clipPath>
</defs>
</svg>
