<svg width="48" height="48" viewBox="0 0 48 48" fill="none" xmlns="http://www.w3.org/2000/svg">
<path d="M21.5 4.5C18.74 4.5 16.5 6.74 16.5 9.5H8.5C6.3 9.5 4.52 11.3 4.52 13.5V21.1H5.1C8.08 21.1 10.5 23.52 10.5 26.5C10.5 29.48 8.08 31.9 5.1 31.9H4.5V39.5C4.5 41.7 6.3 43.5 8.5 43.5H16.1V42.9C16.1 39.92 18.52 37.5 21.5 37.5C24.48 37.5 26.9 39.92 26.9 42.9V43.5H34.5C36.7 43.5 38.5 41.7 38.5 39.5V31.5C41.26 31.5 43.5 29.26 43.5 26.5C43.5 23.74 41.26 21.5 38.5 21.5V13.5C38.5 11.3 36.7 9.5 34.5 9.5H26.5C26.5 6.74 24.26 4.5 21.5 4.5Z" fill="#377DFF"/>
</svg>
