<svg width="29" height="29" viewBox="0 0 29 29" fill="none" xmlns="http://www.w3.org/2000/svg">
<path fill-rule="evenodd" clip-rule="evenodd" d="M20.5417 7.85418H24.1667C25.508 7.85418 26.5834 8.92959 26.5834 10.2708V23.5625C26.5834 24.9038 25.508 25.9792 24.1667 25.9792H4.83341C3.49216 25.9792 2.41675 24.9038 2.41675 23.5625V10.2708C2.41675 8.92959 3.49216 7.85418 4.83341 7.85418H8.45841V5.43751C8.45841 4.09626 9.53383 3.02084 10.8751 3.02084H18.1251C19.4663 3.02084 20.5417 4.09626 20.5417 5.43751V7.85418ZM18.125 5.43751H10.875V7.85418H18.125V5.43751ZM24.1668 23.5625H4.83348V21.1458H24.1668V23.5625ZM4.83348 17.5208H24.1668V10.2708H20.5418V12.6875H18.1251V10.2708H10.8751V12.6875H8.45848V10.2708H4.83348V17.5208Z" fill="#377DFF"/>
</svg>
